HIERARCHY
ROOT Hips
{
	OFFSET -246.377396 91.733124 -540.268188
	CHANNELS 6 Xposition Yposition Zposition Zrotation Yrotation Xrotation 
	JOINT LeftUpLeg
	{
		OFFSET 0.103454 1.857841 10.548504
		CHANNELS 3 Zrotation Yrotation Xrotation
		JOINT LeftLeg
		{
			OFFSET 43.499992 -0.000061 0.000000
			CHANNELS 3 Zrotation Yrotation Xrotation
			JOINT LeftFoot
			{
				OFFSET 42.372196 0.000008 -0.000002
				CHANNELS 3 Zrotation Yrotation Xrotation
				JOINT LeftToe
				{
					OFFSET 17.300022 0.000011 0.000012
					CHANNELS 3 Zrotation Yrotation Xrotation
					End Site
					{
						OFFSET 0.000000 0.000000 0.000000
					}
				}
			}
		}
	}
	JOINT RightUpLeg
	{
		OFFSET 0.103458 1.857820 -10.548491
		CHANNELS 3 Zrotation Yrotation Xrotation
		JOINT RightLeg
		{
			OFFSET 43.500046 0.000015 0.000006
			CHANNELS 3 Zrotation Yrotation Xrotation
			JOINT RightFoot
			{
				OFFSET 42.372269 -0.000046 0.000017
				CHANNELS 3 Zrotation Yrotation Xrotation
				JOINT RightToe
				{
					OFFSET 17.300032 0.000011 0.000015
					CHANNELS 3 Zrotation Yrotation Xrotation
					End Site
					{
						OFFSET 0.000000 0.000000 0.000000
					}
				}
			}
		}
	}
	JOINT Spine
	{
		OFFSET 6.901962 -2.603707 -0.000004
		CHANNELS 3 Zrotation Yrotation Xrotation
		JOINT Spine1
		{
			OFFSET 12.588104 -0.000004 -0.000001
			CHANNELS 3 Zrotation Yrotation Xrotation
			JOINT Spine2
			{
				OFFSET 12.343199 -0.000026 0.000003
				CHANNELS 3 Zrotation Yrotation Xrotation
				JOINT Neck
				{
					OFFSET 25.832890 0.000004 -0.000006
					CHANNELS 3 Zrotation Yrotation Xrotation
					JOINT Head
					{
						OFFSET 11.766623 0.000031 0.000004
						CHANNELS 3 Zrotation Yrotation Xrotation
						End Site
						{
							OFFSET 0.000000 0.000000 0.000000
						}
					}
				}
				JOINT LeftShoulder
				{
					OFFSET 19.745897 -1.480345 6.000100
					CHANNELS 3 Zrotation Yrotation Xrotation
					JOINT LeftArm
					{
						OFFSET 11.284126 0.000003 -0.000015
						CHANNELS 3 Zrotation Yrotation Xrotation
						JOINT LeftForeArm
						{
							OFFSET 33.000057 -0.000023 0.000027
							CHANNELS 3 Zrotation Yrotation Xrotation
							JOINT LeftHand
							{
								OFFSET 25.199987 0.000051 0.000021
								CHANNELS 3 Zrotation Yrotation Xrotation
								End Site
								{
									OFFSET 0.000000 0.000000 0.000000
								}
							}
						}
					}
				}
				JOINT RightShoulder
				{
					OFFSET 19.746086 -1.480362 -6.000076
					CHANNELS 3 Zrotation Yrotation Xrotation
					JOINT RightArm
					{
						OFFSET 11.284140 0.000004 -0.000015
						CHANNELS 3 Zrotation Yrotation Xrotation
						JOINT RightForeArm
						{
							OFFSET 33.000084 -0.000023 0.000011
							CHANNELS 3 Zrotation Yrotation Xrotation
							JOINT RightHand
							{
								OFFSET 25.199789 0.000148 0.000422
								CHANNELS 3 Zrotation Yrotation Xrotation
								End Site
								{
									OFFSET 0.000000 0.000000 0.000000
								}
							}
						}
					}
				}
			}
		}
	}
}
MOTION
Frames: 7
Frame Time: 0.033333
-168.704498 90.902412 432.608795 89.812657 -0.933021 -148.747190 168.890620 -7.200606 177.470458 -33.496201 -5.883073 6.067927 77.762373 -4.058979 0.299875 21.454551 0.003088 0.000002 158.905020 15.963199 -163.615092 -48.324750 0.738931 2.561036 76.180365 -0.249853 5.663363 21.454555 -0.003108 -0.000018 7.252713 -0.117262 0.731856 4.490918 -0.262620 1.458665 4.172935 -0.253673 1.460224 -3.697763 -10.235219 1.666098 -2.574616 10.562199 -2.854357 -140.351918 -71.240301 -42.199197 -9.741684 60.113745 18.338966 -36.367834 -18.297541 1.580541 11.928894 7.824528 41.466481 -151.051437 74.641325 31.068437 22.320855 -59.675452 -22.306863 -67.441520 17.263479 -2.579339 25.525710 -19.951584 -51.367602 
-166.826294 90.277924 432.871399 90.281755 -0.392611 -143.810179 164.428950 -10.271704 177.367322 -41.473400 -6.495655 10.082470 74.574888 -7.030758 0.052210 21.454562 0.003086 0.000000 162.862828 13.943099 -168.092622 -37.790347 -0.917036 1.457985 73.557838 1.095965 6.916115 21.454558 -0.003112 -0.000016 7.444410 0.098237 0.643983 4.876922 0.169399 1.291504 4.558914 0.177330 1.290467 -4.462020 -9.678028 0.746466 -4.336637 11.856861 -4.220977 -140.996100 -72.699891 -41.473981 -11.053808 60.115842 15.657838 -37.634646 -18.330910 1.613897 12.952083 11.924276 35.704414 -149.246996 73.759425 32.941808 23.409773 -58.853834 -21.873616 -68.124717 16.872681 -2.580130 25.899615 -21.754620 -49.452062 
-164.794601 88.704514 433.226288 91.241348 -0.174710 -138.085333 158.310944 -14.172897 177.894271 -52.116693 -7.151506 14.601353 71.490046 -11.388552 -2.947376 21.454545 0.003100 -0.000003 166.017856 12.677897 -177.660611 -38.326234 1.895113 3.230720 80.407664 0.378718 11.213349 21.454558 -0.003108 -0.000018 7.824383 0.327249 0.670378 5.639685 0.621562 1.355840 5.321660 0.629875 1.352059 -6.004320 -8.065792 -0.838289 -6.258478 12.582119 -5.984253 -143.156243 -74.787409 -39.176637 -14.537542 59.707028 10.898316 -39.480648 -18.472930 1.670535 14.538584 14.898541 34.555426 -148.536001 72.237365 33.719660 23.887779 -57.648333 -20.990245 -68.845821 16.447350 -2.580190 24.642662 -21.218058 -47.943543 
-162.964600 86.951187 433.290588 92.619421 -0.607628 -132.614680 152.715134 -17.741193 175.897821 -62.037399 -4.790949 17.797981 69.790490 -17.678702 -13.323295 21.454560 0.003083 0.000011 170.586529 12.988997 -177.215105 -38.819606 5.831239 4.712360 88.852046 -1.497161 11.599282 21.454560 -0.003112 -0.000017 8.312437 0.573367 0.796723 6.620138 1.100299 1.624901 6.302116 1.110233 1.618230 -5.928229 -6.423918 -2.518980 -9.169917 13.734161 -7.990038 -148.360807 -76.630597 -33.797395 -17.277933 58.626710 7.439952 -42.569315 -18.876174 1.781346 15.097278 14.928374 38.433252 -147.993807 71.212051 34.310649 23.026350 -56.392695 -20.615466 -68.849885 16.492641 -2.583511 22.931631 -18.768885 -48.466712 
-161.383896 85.632004 433.183411 94.239795 -0.479635 -128.635671 147.741117 -20.978101 175.581187 -68.944080 -2.939832 18.495876 68.846872 -20.269835 -18.287864 21.454555 0.003095 0.000004 173.191208 11.625201 -170.451756 -40.716014 4.009134 3.502479 93.384600 -1.041098 11.618581 21.454553 -0.003105 -0.000016 8.675021 0.930404 0.999078 7.354222 1.795521 2.055366 7.036171 1.808026 2.044504 -5.253483 -4.238574 -3.350082 -10.678996 14.087002 -8.622169 -149.001738 -77.389902 -33.119908 -19.743818 58.265946 5.318290 -45.724708 -19.396134 1.908385 13.663406 11.414598 42.735698 -148.693901 69.894050 33.634396 16.764875 -53.759483 -19.448117 -66.237214 17.398479 -2.539648 20.360835 -14.366422 -49.832831 
-159.989807 85.226936 433.072693 93.384949 -0.042653 -128.223811 144.816007 -22.329304 174.102751 -69.754632 -2.773970 15.651112 74.268943 -15.427314 -13.247287 21.454553 0.003095 -0.000002 171.991403 11.725098 -170.591570 -43.130363 4.385451 3.553545 94.837108 -1.250845 11.291337 21.454553 -0.003101 -0.000017 8.571681 0.810162 1.298238 7.148949 1.538725 2.644127 6.831089 1.554794 2.634798 -3.767333 -3.038642 -2.882317 -10.029113 13.904114 -7.704482 -146.688339 -75.863287 -35.529507 -20.774685 58.010982 5.751141 -46.281068 -20.210280 1.979499 8.605763 4.584616 46.704642 -153.125710 70.333695 29.057404 8.619442 -51.286039 -20.051668 -59.920560 20.119229 -2.478816 16.449539 -8.533805 -52.564074 
-158.597198 86.192093 432.397095 91.750600 -0.583880 -128.452567 146.188397 -21.179001 172.539881 -63.710147 -4.178932 7.842212 77.433882 -8.876598 -12.136316 21.454557 0.003086 0.000001 173.455017 12.707394 -170.983090 -40.565873 4.924749 3.835283 93.876121 -1.433418 10.835448 21.454553 -0.003106 -0.000016 8.423920 0.370086 1.467610 6.843553 0.652946 2.954491 6.525904 0.670904 2.950509 -0.961926 -3.670287 -1.982167 -8.581724 14.154329 -6.718429 -146.188233 -74.503014 -36.088821 -19.368979 58.129903 7.474250 -44.206525 -19.752198 1.886435 3.117955 -3.420391 46.677390 -157.364007 72.332475 24.652692 4.563326 -52.794903 -18.719655 -53.528117 21.108433 -2.310346 10.399103 -2.326826 -56.131205 
